<?xml version="1.0" encoding="UTF-8"?>
<svg version="1.1" xmlns="http://www.w3.org/2000/svg" width="591" height="309">
<path d="M0 0 C1.30783447 0.00592163 1.30783447 0.00592163 2.64208984 0.01196289 C9.37290631 0.16166186 15.08599068 1.34343967 21.125 4.4375 C22.115 4.9325 22.115 4.9325 23.125 5.4375 C23.455 4.4475 23.785 3.4575 24.125 2.4375 C26.435 2.4375 28.745 2.4375 31.125 2.4375 C31.125 12.3375 31.125 22.2375 31.125 32.4375 C29.145 32.4375 27.165 32.4375 25.125 32.4375 C24.83367187 31.591875 24.54234375 30.74625 24.2421875 29.875 C19.56155175 16.89861859 19.56155175 16.89861859 9.37109375 8.0625 C2.80333522 6.2349498 -5.08856907 6.20199317 -11.375 9 C-19.62870645 14.06156784 -22.92148389 21.79998504 -25.5625 30.7734375 C-28.98667931 45.08840934 -27.33190554 60.19224145 -20.390625 73.17578125 C-16.46245671 79.03766126 -11.69613465 82.6526085 -4.875 84.4375 C2.49241899 85.08881029 9.70942329 85.46588538 16.125 81.4375 C17.40826122 77.58771634 17.2700798 73.94676659 17.25 69.9375 C17.25386719 69.16535156 17.25773437 68.39320313 17.26171875 67.59765625 C17.25599051 64.29246263 17.17707501 61.59372502 16.125 58.4375 C12.29336808 56.40898898 8.39447129 55.93979074 4.125 55.4375 C3.795 53.7875 3.465 52.1375 3.125 50.4375 C15.995 50.4375 28.865 50.4375 42.125 50.4375 C42.125 52.0875 42.125 53.7375 42.125 55.4375 C40.10677083 55.89322917 38.08854167 56.34895833 36.0703125 56.8046875 C33.91780036 57.34224428 33.91780036 57.34224428 32.125 59.4375 C31.75326984 62.0557767 31.75326984 62.0557767 31.7109375 65.1015625 C31.67226562 66.22304687 31.63359375 67.34453125 31.59375 68.5 C31.5628125 69.675625 31.531875 70.85125 31.5 72.0625 C31.46132812 73.24585938 31.42265625 74.42921875 31.3828125 75.6484375 C31.28831155 78.57796691 31.20275442 81.50748597 31.125 84.4375 C16.48503603 90.83196702 1.32700609 94.39902856 -14.625 90.52734375 C-17.56040225 89.3629176 -20.17622731 88.07233346 -22.875 86.4375 C-23.98875 85.76847656 -23.98875 85.76847656 -25.125 85.0859375 C-34.69646909 78.59619141 -40.57593124 68.69050363 -43.125 57.5625 C-45.57345533 43.22469855 -43.31769856 28.4821625 -34.875 16.4375 C-25.69807542 5.34159119 -14.36077855 -0.16775963 0 0 Z " fill="#000000" transform="translate(114.875,147.5625)"/>
<path d="M0 0 C1.30783447 0.00592163 1.30783447 0.00592163 2.64208984 0.01196289 C9.37290631 0.16166186 15.08599068 1.34343967 21.125 4.4375 C22.115 4.9325 22.115 4.9325 23.125 5.4375 C23.455 4.4475 23.785 3.4575 24.125 2.4375 C26.435 2.4375 28.745 2.4375 31.125 2.4375 C31.125 12.3375 31.125 22.2375 31.125 32.4375 C29.145 32.4375 27.165 32.4375 25.125 32.4375 C24.83367187 31.591875 24.54234375 30.74625 24.2421875 29.875 C19.56155175 16.89861859 19.56155175 16.89861859 9.37109375 8.0625 C2.80333522 6.2349498 -5.08856907 6.20199317 -11.375 9 C-19.62870645 14.06156784 -22.92148389 21.79998504 -25.5625 30.7734375 C-28.98667931 45.08840934 -27.33190554 60.19224145 -20.390625 73.17578125 C-16.46245671 79.03766126 -11.69613465 82.6526085 -4.875 84.4375 C2.49241899 85.08881029 9.70942329 85.46588538 16.125 81.4375 C17.40826122 77.58771634 17.2700798 73.94676659 17.25 69.9375 C17.25386719 69.16535156 17.25773437 68.39320312 17.26171875 67.59765625 C17.25599051 64.29246263 17.17707501 61.59372502 16.125 58.4375 C12.29336808 56.40898898 8.39447129 55.93979074 4.125 55.4375 C3.795 53.7875 3.465 52.1375 3.125 50.4375 C15.995 50.4375 28.865 50.4375 42.125 50.4375 C42.125 52.0875 42.125 53.7375 42.125 55.4375 C40.10677083 55.89322917 38.08854167 56.34895833 36.0703125 56.8046875 C33.91780036 57.34224428 33.91780036 57.34224428 32.125 59.4375 C31.75326984 62.0557767 31.75326984 62.0557767 31.7109375 65.1015625 C31.67226562 66.22304687 31.63359375 67.34453125 31.59375 68.5 C31.5628125 69.675625 31.531875 70.85125 31.5 72.0625 C31.46132812 73.24585937 31.42265625 74.42921875 31.3828125 75.6484375 C31.28831155 78.57796691 31.20275442 81.50748597 31.125 84.4375 C16.48503603 90.83196702 1.32700609 94.39902856 -14.625 90.52734375 C-17.56040225 89.3629176 -20.17622731 88.07233346 -22.875 86.4375 C-23.98875 85.76847656 -23.98875 85.76847656 -25.125 85.0859375 C-34.69646909 78.59619141 -40.57593124 68.69050363 -43.125 57.5625 C-45.57345533 43.22469855 -43.31769856 28.4821625 -34.875 16.4375 C-25.69807542 5.34159119 -14.36077855 -0.16775963 0 0 Z " fill="#000000" transform="translate(74.875,40.5625)"/>
<path d="M0 0 C6.27 0 12.54 0 19 0 C19 0.99 19 1.98 19 3 C17.35 3.66 15.7 4.32 14 5 C14 16.55 14 28.1 14 40 C26.45797221 40.55181742 26.45797221 40.55181742 30.625 34.9375 C31.02976563 34.20402344 31.43453125 33.47054687 31.8515625 32.71484375 C32.23054688 32.14894531 32.60953125 31.58304688 33 31 C33.99 31 34.98 31 36 31 C36 33.97 36 36.94 36 40 C40.75771109 37.62114445 40.97029176 36.56568072 42.875 31.77734375 C43.25180908 30.84807823 43.25180908 30.84807823 43.63623047 29.90003967 C44.43708125 27.91743314 45.21894752 25.9279785 46 23.9375 C46.52475182 22.62513456 47.0507812 21.31327919 47.578125 20.00195312 C48.34676034 18.0903881 49.11455807 16.17855919 49.87695312 14.26449585 C51.79799788 9.45075792 53.8512511 4.715884 56 0 C57.32 0 58.64 0 60 0 C60.30703857 0.75506836 60.61407715 1.51013672 60.93041992 2.28808594 C62.09489075 5.15104407 63.25982448 8.01381332 64.42504883 10.87646484 C65.16717443 12.70005495 65.90878972 14.5238527 66.65039062 16.34765625 C68.09654992 19.899967 69.54698618 23.45048778 71 27 C71.71470459 28.74893555 71.71470459 28.74893555 72.44384766 30.53320312 C72.89163574 31.62052734 73.33942383 32.70785156 73.80078125 33.828125 C74.20079346 34.80168945 74.60080566 35.77525391 75.01293945 36.77832031 C75.8091937 38.92889463 75.8091937 38.92889463 77 40 C78.51928038 40.07179964 80.04167482 40.08392007 81.5625 40.0625 C82.38878906 40.05347656 83.21507812 40.04445312 84.06640625 40.03515625 C84.70449219 40.02355469 85.34257812 40.01195312 86 40 C86.07416067 35.35526018 86.12860615 30.71086501 86.16479492 26.06567383 C86.17988094 24.48553464 86.2003525 22.90543731 86.22631836 21.32543945 C86.26271126 19.05409415 86.27972762 16.78330241 86.29296875 14.51171875 C86.30845261 13.80536789 86.32393646 13.09901703 86.33988953 12.3712616 C86.34785173 8.47054538 86.34785173 8.47054538 84.6184082 5.07348633 C82.76900527 3.84678174 81.17757361 3.37544373 79 3 C79 2.01 79 1.02 79 0 C84.13572158 -1.22998374 89.01755039 -2.02031902 94 0 C99.26311322 4.54165275 102.83575282 10.77076065 106.48876953 16.61425781 C108.47856279 19.75549524 110.65048899 22.70845362 112.875 25.6875 C113.91831768 27.12380217 114.96030151 28.56107584 116 30 C116.02900455 26.3958502 116.04680018 22.79173038 116.0625 19.1875 C116.07506836 17.65125977 116.07506836 17.65125977 116.08789062 16.08398438 C116.09272461 14.60961914 116.09272461 14.60961914 116.09765625 13.10546875 C116.10551147 11.74651489 116.10551147 11.74651489 116.11352539 10.36010742 C116.09920981 7.84715961 116.09920981 7.84715961 115 5 C111.99152582 3.77479736 111.99152582 3.77479736 109 3 C109 2.01 109 1.02 109 0 C115.27 0 121.54 0 128 0 C128 0.99 128 1.98 128 3 C126.02 3.33 124.04 3.66 122 4 C121.67 17.2 121.34 30.4 121 44 C116 44 116 44 114.3059082 42.4621582 C113.80921631 41.74890381 113.31252441 41.03564941 112.80078125 40.30078125 C111.95314209 39.11319214 111.95314209 39.11319214 111.08837891 37.90161133 C110.50233887 37.04720459 109.91629883 36.19279785 109.3125 35.3125 C108.07799733 33.57208305 106.84231265 31.83250392 105.60546875 30.09375 C104.99880371 29.23136719 104.39213867 28.36898437 103.76708984 27.48046875 C101.30466592 24.02395769 98.73171598 20.66083556 96.125 17.3125 C95.32320313 16.27738281 94.52140625 15.24226563 93.6953125 14.17578125 C93.13585937 13.45777344 92.57640625 12.73976563 92 12 C91.97094076 15.7499837 91.95318126 19.49993837 91.9375 23.25 C91.92493164 24.84521484 91.92493164 24.84521484 91.91210938 26.47265625 C91.90727539 28.00986328 91.90727539 28.00986328 91.90234375 29.578125 C91.89448853 30.99206543 91.89448853 30.99206543 91.88647461 32.43457031 C91.99262189 34.83327053 92.11963885 36.76569546 93 39 C95.99615946 40.3045656 95.99615946 40.3045656 99 41 C99 41.99 99 42.98 99 44 C86.46 44 73.92 44 61 44 C61.33 43.01 61.66 42.02 62 41 C63.65 41 65.3 41 67 41 C65.68 37.37 64.36 33.74 63 30 C58.38 30 53.76 30 49 30 C47.316011 34.2099725 46.75940147 35.78952566 47 40 C48.65 40.33 50.3 40.66 52 41 C52 41.99 52 42.98 52 44 C34.84 44 17.68 44 0 44 C0 43.01 0 42.02 0 41 C0.639375 40.87625 1.27875 40.7525 1.9375 40.625 C2.618125 40.41875 3.29875 40.2125 4 40 C5.53297297 36.93405406 5.12131455 33.72888147 5.09765625 30.3671875 C5.09553383 29.23943405 5.09553383 29.23943405 5.09336853 28.08889771 C5.08776465 25.6842249 5.07521157 23.27964473 5.0625 20.875 C5.0574855 19.24609509 5.0529225 17.61718873 5.04882812 15.98828125 C5.03779397 11.99215173 5.02052679 7.99609158 5 4 C3.35 3.67 1.7 3.34 0 3 C0 2.01 0 1.02 0 0 Z M55 12 C54.16235732 13.95649397 53.33000941 15.91525556 52.5 17.875 C52.0359375 18.96554688 51.571875 20.05609375 51.09375 21.1796875 C49.87947544 23.80661929 49.87947544 23.80661929 50 26 C53.96 26 57.92 26 62 26 C60.35 21.38 58.7 16.76 57 12 C56.34 12 55.68 12 55 12 Z " fill="#000000" transform="translate(185,86)"/>
<path d="M0 0 C6.93 0 13.86 0 21 0 C20.67 0.99 20.34 1.98 20 3 C18.35 3.33 16.7 3.66 15 4 C15 15.55 15 27.1 15 39 C20.41290501 41.37892669 20.41290501 41.37892669 23.72192383 40.38623047 C31.2525008 35.80380457 33.81255668 21.95184706 36.8125 13.875 C37.31916272 12.52325046 37.82632102 11.17168656 38.33398438 9.8203125 C39.5616968 6.54899034 40.78273054 3.27522463 42 0 C43.65 0 45.3 0 47 0 C47.42821045 1.17095215 47.8564209 2.3419043 48.29760742 3.54833984 C49.89099614 7.89022882 51.50875086 12.22269395 53.1340332 16.55273438 C53.83408099 18.42818105 54.52749256 20.30611875 55.21411133 22.18652344 C56.20220963 24.88899014 57.21382342 27.58160134 58.23046875 30.2734375 C58.53276901 31.11619232 58.83506927 31.95894714 59.14653015 32.82723999 C60.86886751 37.5483712 60.86886751 37.5483712 64.7355957 40.54541016 C65.48284912 40.6954248 66.23010254 40.84543945 67 41 C67 41.99 67 42.98 67 44 C60.73 44 54.46 44 48 44 C48 43.01 48 42.02 48 41 C49.65 41 51.3 41 53 41 C52.01 37.04 51.02 33.08 50 29 C45.05 29 40.1 29 35 29 C34.690625 30.44375 34.38125 31.8875 34.0625 33.375 C33.54516353 35.78923686 33.10514766 37.78970467 32 40 C34.31 40.66 36.62 41.32 39 42 C39 42.66 39 43.32 39 44 C26.13 44 13.26 44 0 44 C0 43.01 0 42.02 0 41 C2.475 40.505 2.475 40.505 5 40 C5.33 28.12 5.66 16.24 6 4 C3.03 3.505 3.03 3.505 0 3 C0 2.01 0 1.02 0 0 Z M42 11 C41.16260219 13.1234016 40.33019717 15.2487728 39.5 17.375 C39.0359375 18.55835938 38.571875 19.74171875 38.09375 20.9609375 C36.88712206 23.7753244 36.88712206 23.7753244 37 26 C40.63 26 44.26 26 48 26 C45.8092006 18.39230548 45.8092006 18.39230548 43 11 C42.67 11 42.34 11 42 11 Z " fill="#000000" transform="translate(402,193)"/>
<path d="M0 0 C5.9565522 4.53832548 10.44648693 9.40513801 11.625 17 C12.41908528 25.95551728 11.01109493 32.39641878 5.25 39.375 C1.80762384 43.32037176 -1.27354678 44.79748198 -6.49609375 45.30078125 C-14.24830329 45.32817422 -18.86080667 44.84482317 -25 39.875 C-30.32587851 33.42788391 -32.08958251 27.2773886 -31.75 18.92578125 C-30.73550324 11.01059301 -27.3347164 6.33511993 -21.27734375 1.3125 C-15.50170258 -2.67233662 -6.44692816 -1.91020094 0 0 Z M-19.15234375 6.1328125 C-23.39445674 12.61118313 -24.00031317 20.94898445 -23.0234375 28.44921875 C-21.63761034 33.90069547 -19.03434645 37.89376903 -14.375 41 C-9.98852447 41.70643613 -6.42297868 41.56955363 -2.5 39.4375 C2.04726375 34.22152099 3.1632462 28.84418141 3.0625 22.0625 C3.05637695 21.3610083 3.05025391 20.6595166 3.04394531 19.93676758 C2.83948142 13.16979906 1.29984504 9.17018671 -3.0625 4 C-8.50286066 1.64741161 -14.73976464 1.78168992 -19.15234375 6.1328125 Z " fill="#000000" transform="translate(232.375,193)"/>
<path d="M0 0 C11.55 0 23.1 0 35 0 C35 3.63 35 7.26 35 11 C33.68 11 32.36 11 31 11 C30.525625 10.05125 30.05125 9.1025 29.5625 8.125 C28.66774099 6.36745777 28.66774099 6.36745777 27 5 C22.64643203 3.83183766 18.51163239 3.45116324 14 3 C14 8.61 14 14.22 14 20 C15.44375 19.5875 16.8875 19.175 18.375 18.75 C19.18710938 18.51796875 19.99921875 18.2859375 20.8359375 18.046875 C23.45785454 16.7785108 23.99382318 15.67576692 25 13 C25.99 13 26.98 13 28 13 C28 18.61 28 24.22 28 30 C27.01 30 26.02 30 25 30 C24.608125 29.21625 24.21625 28.4325 23.8125 27.625 C21.76290327 24.65661853 21.16525611 24.49617533 17.8125 23.6875 C16.554375 23.460625 15.29625 23.23375 14 23 C14.33 28.28 14.66 33.56 15 39 C22.60234656 40.27591409 22.60234656 40.27591409 30 39 C31.4944893 36.98180078 32.68098486 34.95023923 33.82421875 32.71484375 C34.21222656 32.14894531 34.60023438 31.58304688 35 31 C35.99 31 36.98 31 38 31 C38.02696365 32.79158489 38.04637917 34.58328473 38.0625 36.375 C38.07410156 37.37273437 38.08570313 38.37046875 38.09765625 39.3984375 C38 42 38 42 37 44 C24.79 44 12.58 44 0 44 C0 43.01 0 42.02 0 41 C2.475 40.505 2.475 40.505 5 40 C5 28.12 5 16.24 5 4 C3.35 3.67 1.7 3.34 0 3 C0 2.01 0 1.02 0 0 Z " fill="#000000" transform="translate(160,193)"/>
<path d="M0 0 C1.40765625 0.00966797 1.40765625 0.00966797 2.84375 0.01953125 C5.22072434 0.16983992 7.2072462 0.60021675 9.5 1.1875 C10.82 1.1875 12.14 1.1875 13.5 1.1875 C13.995 8.1175 13.995 8.1175 14.5 15.1875 C9.5 14.1875 9.5 14.1875 8.20703125 12.375 C7.91183594 11.653125 7.61664063 10.93125 7.3125 10.1875 C6.14662154 7.02379282 6.14662154 7.02379282 3.5 5.1875 C1.5870598 4.95315288 1.5870598 4.95315288 -0.5 4.9375 C-1.20125 4.91171875 -1.9025 4.8859375 -2.625 4.859375 C-3.24375 4.96765625 -3.8625 5.0759375 -4.5 5.1875 C-7.06687367 9.0378105 -6.33288724 10.77319763 -5.5 15.1875 C-3.01297055 16.19563515 -0.52694443 17.17785895 2 18.08203125 C7.34030038 20.0429228 10.83510561 21.81327121 14.5 26.1875 C14.83 26.5175 15.16 26.8475 15.5 27.1875 C16.01916001 31.54102754 16.49367246 36.16040817 14.5234375 40.1796875 C12.2356087 43.00087516 9.84836389 44.86971815 6.5 46.1875 C-0.51177293 46.78618973 -7.54591363 46.11471152 -14.5 45.1875 C-14.995 37.7625 -14.995 37.7625 -15.5 30.1875 C-14.18 30.1875 -12.86 30.1875 -11.5 30.1875 C-11.01080078 31.12722656 -11.01080078 31.12722656 -10.51171875 32.0859375 C-10.07472656 32.90320313 -9.63773438 33.72046875 -9.1875 34.5625 C-8.75824219 35.37460938 -8.32898438 36.18671875 -7.88671875 37.0234375 C-6.53221276 39.45584043 -6.53221276 39.45584043 -3.5 41.1875 C-1.28417411 41.50310324 -1.28417411 41.50310324 1.0625 41.4375 C1.84753906 41.44265625 2.63257813 41.4478125 3.44140625 41.453125 C5.72290968 41.37179262 5.72290968 41.37179262 7.5 39.1875 C8.05912768 34.69522363 8.05912768 34.69522363 6.4140625 30.67578125 C3.18149758 28.1622971 -0.6005702 26.63654328 -4.31835938 24.96875 C-8.46821099 23.00651984 -11.08554822 21.11469185 -13.5 17.1875 C-14.51022798 12.43348598 -14.1991657 8.38606976 -11.75 4.1875 C-7.8985959 0.76402969 -5.14828176 -0.07778997 0 0 Z " fill="#000000" transform="translate(263.5,191.8125)"/>
<path d="M0 0 C4.37477474 -0.11651725 8.74914827 -0.18736 13.125 -0.25 C14.3625 -0.28351563 15.6 -0.31703125 16.875 -0.3515625 C28.26765651 -0.47406418 28.26765651 -0.47406418 33 4 C35.59543534 7.42125567 35.42462042 10.82456585 35 15 C33.58047372 18.92789375 31.7710392 21.41701914 28.4375 23.9375 C23.50968523 25.46064275 19.14935195 25.18839092 14 25 C14.33 29.95 14.66 34.9 15 40 C16.65 40.33 18.3 40.66 20 41 C20 41.99 20 42.98 20 44 C13.73 44 7.46 44 1 44 C1 43.01 1 42.02 1 41 C2.98 40.505 2.98 40.505 5 40 C5 28.12 5 16.24 5 4 C2.525 3.01 2.525 3.01 0 2 C0 1.34 0 0.68 0 0 Z M14 3 C14 9.27 14 15.54 14 22 C21.49948928 21.78811503 21.49948928 21.78811503 24.5 18.9375 C26.59645107 14.83194999 26.5831964 12.59267166 26 8 C24.6469872 5.39685006 24.6469872 5.39685006 22 4 C19.36 3.67 16.72 3.34 14 3 Z " fill="#000000" transform="translate(283,193)"/>
<path d="M0 0 C1.65 0 3.3 0 5 0 C5.64231567 1.75642822 5.64231567 1.75642822 6.29760742 3.54833984 C7.89099614 7.89022882 9.50875086 12.22269395 11.1340332 16.55273438 C11.83408099 18.42818105 12.52749256 20.30611875 13.21411133 22.18652344 C14.20220963 24.88899014 15.21382342 27.58160134 16.23046875 30.2734375 C16.53276901 31.11619232 16.83506927 31.95894714 17.14653015 32.82723999 C18.86886751 37.5483712 18.86886751 37.5483712 22.7355957 40.54541016 C23.48284912 40.6954248 24.23010254 40.84543945 25 41 C25 41.99 25 42.98 25 44 C18.73 44 12.46 44 6 44 C6 43.01 6 42.02 6 41 C7.65 41 9.3 41 11 41 C10.01 37.04 9.02 33.08 8 29 C3.05 29 -1.9 29 -7 29 C-7.309375 30.44375 -7.61875 31.8875 -7.9375 33.375 C-8.45483647 35.78923686 -8.89485234 37.78970467 -10 40 C-7.69 40.66 -5.38 41.32 -3 42 C-3 42.66 -3 43.32 -3 44 C-8.94 44 -14.88 44 -21 44 C-21 43.01 -21 42.02 -21 41 C-20.22551514 40.75620605 -19.45103027 40.51241211 -18.65307617 40.26123047 C-10.80634499 36.53101852 -8.1232103 21.77891038 -5.1875 13.875 C-4.68083728 12.52325046 -4.17367898 11.17168656 -3.66601562 9.8203125 C-2.4383032 6.54899034 -1.21726946 3.27522463 0 0 Z M0 11 C-0.83739781 13.1234016 -1.66980283 15.2487728 -2.5 17.375 C-2.9640625 18.55835938 -3.428125 19.74171875 -3.90625 20.9609375 C-5.11287794 23.7753244 -5.11287794 23.7753244 -5 26 C-1.37 26 2.26 26 6 26 C3.8092006 18.39230548 3.8092006 18.39230548 1 11 C0.67 11 0.34 11 0 11 Z " fill="#000000" transform="translate(338,193)"/>
<path d="M0 0 C12.87 0 25.74 0 39 0 C39 3.96 39 7.92 39 12 C37.68 11.67 36.36 11.34 35 11 C34.4225 10.030625 33.845 9.06125 33.25 8.0625 C30.80072228 4.04603476 30.80072228 4.04603476 23 3 C23.33 14.88 23.66 26.76 24 39 C25.98 39.66 27.96 40.32 30 41 C30 41.99 30 42.98 30 44 C23.07 44 16.14 44 9 44 C9 43.01 9 42.02 9 41 C10.98 40.34 12.96 39.68 15 39 C15.33 27.12 15.66 15.24 16 3 C7.0954114 5.58797127 7.0954114 5.58797127 3 12 C2.01 12 1.02 12 0 12 C0 8.04 0 4.08 0 0 Z " fill="#000000" transform="translate(361,193)"/>
<path d="M0 0 C6.27 0 12.54 0 19 0 C19 0.99 19 1.98 19 3 C17.35 3.33 15.7 3.66 14 4 C14 15.55 14 27.1 14 39 C19.62652838 39.93775473 22.58855858 39.83970643 28 39 C28.28875 38.236875 28.5775 37.47375 28.875 36.6875 C30 34 30 34 32 31 C33.32 31.33 34.64 31.66 36 32 C35.67 35.96 35.34 39.92 35 44 C23.45 44 11.9 44 0 44 C0 43.01 0 42.02 0 41 C1.98 40.505 1.98 40.505 4 40 C4.33 28.12 4.66 16.24 5 4 C3.35 3.67 1.7 3.34 0 3 C0 2.01 0 1.02 0 0 Z " fill="#000000" transform="translate(470,193)"/>
<path d="M0 0 C6.27 0 12.54 0 19 0 C19 0.99 19 1.98 19 3 C17.35 3.66 15.7 4.32 14 5 C14 16.55 14 28.1 14 40 C26.45797221 40.55181742 26.45797221 40.55181742 30.625 34.9375 C31.02976563 34.20402344 31.43453125 33.47054687 31.8515625 32.71484375 C32.23054688 32.14894531 32.60953125 31.58304688 33 31 C33.99 31 34.98 31 36 31 C36.0272415 32.41655793 36.04650467 33.83327045 36.0625 35.25 C36.07410156 36.03890625 36.08570313 36.8278125 36.09765625 37.640625 C36 40 36 40 35 44 C23.45 44 11.9 44 0 44 C0 43.01 0 42.02 0 41 C0.639375 40.87625 1.27875 40.7525 1.9375 40.625 C2.618125 40.41875 3.29875 40.2125 4 40 C5.53297297 36.93405406 5.12131455 33.72888147 5.09765625 30.3671875 C5.09553383 29.23943405 5.09553383 29.23943405 5.09336853 28.08889771 C5.08776465 25.6842249 5.07521157 23.27964473 5.0625 20.875 C5.0574855 19.24609509 5.0529225 17.61718873 5.04882812 15.98828125 C5.03779397 11.99215173 5.02052679 7.99609158 5 4 C3.35 3.67 1.7 3.34 0 3 C0 2.01 0 1.02 0 0 Z " fill="#000000" transform="translate(146,86)"/>
<path d="M0 0 C6.93 0 13.86 0 21 0 C21 0.99 21 1.98 21 3 C19.02 3.66 17.04 4.32 15 5 C15 16.22 15 27.44 15 39 C16.98 39.66 18.96 40.32 21 41 C21 41.99 21 42.98 21 44 C14.07 44 7.14 44 0 44 C0 43.01 0 42.02 0 41 C1.98 41 3.96 41 6 41 C6 29.12 6 17.24 6 5 C4.02 4.34 2.04 3.68 0 3 C0 2.01 0 1.02 0 0 Z " fill="#000000" transform="translate(120,86)"/>
<path d="M0 0 C1.08667969 0.01804688 2.17335938 0.03609375 3.29296875 0.0546875 C4.54013672 0.08949219 4.54013672 0.08949219 5.8125 0.125 C5.8125 2.435 5.8125 4.745 5.8125 7.125 C2.8125 6.125 2.8125 6.125 0.8125 3.125 C-1.77130177 2.87469023 -1.77130177 2.87469023 -4.1875 3.125 C-6.90248943 7.36717099 -6.67624992 11.74234416 -5.6875 16.5625 C-5.5225 17.078125 -5.3575 17.59375 -5.1875 18.125 C-1.77107241 18.37515873 -1.77107241 18.37515873 1.8125 18.125 C2.4725 17.135 3.1325 16.145 3.8125 15.125 C4.8025 15.455 5.7925 15.785 6.8125 16.125 C5.375 18.625 5.375 18.625 2.8125 21.125 C-0.32697816 21.8864406 -3.03660491 21.79778899 -6.1875 21.125 C-9.25 19.25 -9.25 19.25 -11.1875 16.125 C-11.94791399 11.11759299 -11.97496961 6.4892201 -9.1875 2.125 C-5.66070901 -0.22619399 -4.15870515 -0.08943452 0 0 Z " fill="#000000" transform="translate(568.1875,215.875)"/>
<path d="M0 0 C2.97 0 5.94 0 9 0 C9 0.66 9 1.32 9 2 C8.34 2 7.68 2 7 2 C7 7.61 7 13.22 7 19 C8.98 18.67 10.96 18.34 13 18 C13.66 17.01 14.32 16.02 15 15 C15.66 15 16.32 15 17 15 C17 16.98 17 18.96 17 21 C11.39 21 5.78 21 0 21 C0 20.34 0 19.68 0 19 C0.66 18.67 1.32 18.34 2 18 C2 13.05 2 8.1 2 3 C1.34 2.67 0.68 2.34 0 2 C0 1.34 0 0.68 0 0 Z " fill="#000000" transform="translate(539,216)"/>
<path d="M0 0 C2.97 0 5.94 0 9 0 C9 0.66 9 1.32 9 2 C8.34 2 7.68 2 7 2 C7 7.61 7 13.22 7 19 C8.98 18.67 10.96 18.34 13 18 C13.66 17.01 14.32 16.02 15 15 C15.66 15 16.32 15 17 15 C17 16.98 17 18.96 17 21 C11.39 21 5.78 21 0 21 C0 20.34 0 19.68 0 19 C0.66 18.67 1.32 18.34 2 18 C2 13.05 2 8.1 2 3 C1.34 2.67 0.68 2.34 0 2 C0 1.34 0 0.68 0 0 Z " fill="#000000" transform="translate(521,216)"/>
</svg>
